<svg width="1024" height="1024" viewBox="0 0 1024 1024" fill="none" xmlns="http://www.w3.org/2000/svg">
<rect width="1024" height="1024" rx="124" fill="#203C25"/>
<path d="M298.385 768.2C275.051 768.2 252.651 764.933 231.185 758.4C210.185 751.867 190.351 743 171.685 731.8L177.285 623.3H191.985L233.985 748.6L201.785 727.6L199.685 718.5C211.351 726.433 222.085 732.733 231.885 737.4C241.685 742.067 251.485 745.333 261.285 747.2C271.551 749.067 282.751 750 294.885 750C310.751 750 325.451 746.733 338.985 740.2C352.518 733.2 363.251 723.167 371.185 710.1C379.118 697.033 383.085 681.4 383.085 663.2C383.085 646.867 379.351 633.1 371.885 621.9C364.418 610.7 354.385 600.667 341.785 591.8C329.651 582.933 316.351 575 301.885 568L281.585 556.8C264.318 547.467 247.751 537.2 231.885 526C216.018 514.333 202.951 499.867 192.685 482.6C182.885 465.333 177.985 443.867 177.985 418.2C177.985 393 183.818 370.367 195.485 350.3C207.618 330.233 225.118 314.6 247.985 303.4C270.851 291.733 298.618 285.9 331.285 285.9C353.685 285.9 373.985 289.167 392.185 295.7C410.851 301.767 426.718 309.7 439.785 319.5L436.985 423.8H421.585L377.485 303.4L413.885 317.4L415.285 336.3C401.751 324.633 388.685 316.467 376.085 311.8C363.951 306.667 350.185 304.1 334.785 304.1C318.918 304.1 304.685 307.367 292.085 313.9C279.485 319.967 269.451 329.067 261.985 341.2C254.518 353.333 250.785 367.8 250.785 384.6C250.785 400.467 254.518 414.233 261.985 425.9C269.918 437.1 280.185 446.9 292.785 455.3C305.385 463.7 318.918 471.867 333.385 479.8L353.685 490.3C371.885 500.1 388.918 510.833 404.785 522.5C421.118 533.7 434.418 547.7 444.685 564.5C455.418 581.3 460.785 603 460.785 629.6C460.785 655.733 455.185 679.3 443.985 700.3C432.785 721.3 415.285 737.867 391.485 750C367.685 762.133 336.651 768.2 298.385 768.2ZM499.564 757V741.6L559.064 731.8H610.864L667.564 741.6V757H499.564ZM535.264 757C536.197 744.867 536.897 730.4 537.364 713.6C537.83 696.8 538.064 679.3 538.064 661.1C538.53 642.9 538.764 626.1 538.764 610.7V302.7L496.764 291.5V278.9L624.864 245.3L634.664 253L631.864 396.5V497.3V498.7V610.7C631.864 626.1 631.864 642.9 631.864 661.1C632.33 679.3 632.797 696.8 633.264 713.6C633.73 730.4 634.43 744.867 635.364 757H535.264ZM699.064 757V741.6L756.464 731.8H807.564L864.964 741.6V757H699.064ZM731.964 757C733.364 744.867 734.297 730.4 734.764 713.6C735.23 696.8 735.464 679.3 735.464 661.1C735.464 642.9 735.464 626.1 735.464 610.7V535.8C735.464 514.333 731.964 499.633 724.964 491.7C718.43 483.767 708.164 479.8 694.164 479.8C685.764 479.8 676.897 481.667 667.564 485.4C658.23 488.667 649.13 493.8 640.264 500.8C631.397 507.333 622.764 515.267 614.364 524.6L612.964 507.1H619.264C630.93 488.9 643.064 473.967 655.664 462.3C668.264 450.167 681.564 441.3 695.564 435.7C710.03 429.633 725.43 426.6 741.764 426.6C768.364 426.6 789.597 435.233 805.464 452.5C821.33 469.3 829.264 496.367 829.264 533.7V610.7C829.264 626.1 829.264 642.9 829.264 661.1C829.73 679.3 830.197 696.8 830.664 713.6C831.13 730.4 831.83 744.867 832.764 757H731.964Z" fill="#BDEE63"/>
</svg>
